<svg width="491" height="367" viewBox="0 0 491 367" fill="none" xmlns="http://www.w3.org/2000/svg">
<g clip-path="url(#clip0)">
<path d="M397.801 43.9475H491V137.147H397.801V43.9475Z" fill="#F7DF1E"/>
<path d="M422.306 121.831L429.439 117.515C430.815 119.955 432.066 122.019 435.069 122.019C437.946 122.019 439.761 120.893 439.761 116.514V86.7349H448.519V116.638C448.519 125.709 443.202 129.838 435.444 129.838C428.438 129.838 424.371 126.21 422.306 121.831" fill="black"/>
<path d="M453.277 120.893L460.408 116.764C462.285 119.83 464.725 122.082 469.042 122.082C472.671 122.082 474.985 120.267 474.985 117.765C474.985 114.762 472.608 113.698 468.604 111.947L466.415 111.008C460.095 108.318 455.904 104.94 455.904 97.8082C455.904 91.2392 460.909 86.2342 468.729 86.2342C474.297 86.2342 478.301 88.1737 481.178 93.2413L474.359 97.6203C472.858 94.9304 471.231 93.867 468.729 93.867C466.164 93.867 464.537 95.4936 464.537 97.6203C464.537 100.248 466.164 101.312 469.917 102.938L472.107 103.877C479.552 107.068 483.743 110.32 483.743 117.64C483.743 125.523 477.55 129.839 469.229 129.839C461.097 129.839 455.841 125.961 453.277 120.893" fill="black"/>
</g>
<g clip-path="url(#clip1)">
<path d="M268.085 28.7534C268.084 27.1142 267.733 25.6656 267.021 24.4224C266.323 23.1999 265.277 22.1753 263.874 21.3652C252.293 14.7066 240.7 8.06841 229.122 1.40306C226.001 -0.393691 222.975 -0.328188 219.876 1.49436C215.267 4.20509 192.187 17.3895 185.31 21.3614C182.477 22.9963 181.099 25.4983 181.099 28.7504C181.094 42.1412 181.099 55.5316 181.094 68.9227C181.095 70.526 181.431 71.9464 182.111 73.1709C182.81 74.4304 183.871 75.4832 185.306 76.3116C192.184 80.2836 215.266 93.467 219.875 96.1784C222.975 98.002 226.001 98.0671 229.123 96.2697C240.701 89.604 252.295 82.9661 263.878 76.3076C265.313 75.4795 266.374 74.426 267.073 73.1675C267.751 71.943 268.089 70.5226 268.089 68.919C268.089 68.919 268.089 42.1445 268.085 28.7534Z" fill="#5C8DBC"/>
<path d="M224.725 48.7061L182.111 73.1709C182.81 74.4304 183.871 75.4832 185.306 76.3117C192.184 80.2836 215.266 93.467 219.875 96.1784C222.975 98.002 226.001 98.0671 229.123 96.2697C240.701 89.604 252.295 82.9661 263.878 76.3076C265.313 75.4795 266.374 74.426 267.073 73.1675L224.725 48.7061Z" fill="#1A4674"/>
<path d="M212.103 55.9528C214.583 60.2692 219.244 63.1805 224.592 63.1805C229.972 63.1805 234.66 60.2322 237.127 55.8696L224.725 48.7061L212.103 55.9528Z" fill="#1A4674"/>
<path d="M268.085 28.7534C268.084 27.1142 267.733 25.6656 267.021 24.4224L224.725 48.7061L267.073 73.1675C267.751 71.943 268.089 70.5226 268.089 68.919C268.089 68.919 268.089 42.1446 268.085 28.7534Z" fill="#1B598E"/>
<path d="M265.756 50.4546H262.447V53.7549H259.137V50.4546H255.828V47.1554H259.137V43.8558H262.447V47.1554H265.756V50.4546Z" fill="white"/>
<path d="M253.681 50.4546H250.372V53.7549H247.063V50.4546H243.754V47.1554H247.063V43.8558H250.372V47.1554H253.681V50.4546Z" fill="white"/>
<path d="M237.127 55.8696C234.66 60.2322 229.972 63.1805 224.592 63.1805C219.244 63.1805 214.583 60.2692 212.103 55.9528C210.899 53.8553 210.206 51.427 210.206 48.8364C210.206 40.9146 216.647 34.4926 224.592 34.4926C229.905 34.4926 234.542 37.3676 237.034 41.6399L249.608 34.4203C244.61 25.818 235.279 20.0307 224.592 20.0307C208.636 20.0307 195.702 32.9276 195.702 48.8364C195.702 54.0556 197.094 58.95 199.528 63.1717C204.513 71.8194 213.871 77.6424 224.592 77.6424C235.332 77.6424 244.704 71.796 249.683 63.1228L237.127 55.8696Z" fill="white"/>
</g>
<path fill-rule="evenodd" clip-rule="evenodd" d="M72.0524 261.561C72.8425 261.123 73.7313 260.893 74.635 260.893C75.5387 260.893 76.4275 261.123 77.2176 261.561C85.0994 265.99 108.851 279.32 116.742 283.751C117.52 284.18 118.169 284.809 118.623 285.573C119.077 286.336 119.319 287.207 119.324 288.095V332.474C119.324 334.264 118.341 335.918 116.742 336.819L77.2176 359.008C76.4275 359.447 75.5387 359.677 74.635 359.677C73.7313 359.677 72.8425 359.447 72.0524 359.008L32.5281 336.816C31.7508 336.387 31.1018 335.759 30.6479 334.996C30.194 334.232 29.9515 333.362 29.9455 332.474V288.095C29.9455 286.305 30.9287 284.652 32.5281 283.751C40.4099 279.322 64.1706 265.99 72.0524 261.561Z" fill="#283593"/>
<path fill-rule="evenodd" clip-rule="evenodd" d="M30.6629 334.75C30.0373 333.915 29.9455 333.125 29.9455 332.05V287.93C29.9511 287.046 30.1925 286.18 30.6449 285.421C31.0973 284.662 31.7441 284.037 32.5187 283.612C40.3817 279.213 64.0506 265.952 71.916 261.551C73.506 260.66 75.6628 260.681 77.2552 261.57C85.1182 265.971 108.702 279.11 116.568 283.51C117.203 283.87 117.69 284.301 118.12 284.87L30.6629 334.75Z" fill="#5C6BC0"/>
<path fill-rule="evenodd" clip-rule="evenodd" d="M74.635 277.356C92.8095 277.356 107.564 292.11 107.564 310.285C107.564 328.459 92.8095 343.214 74.635 343.214C56.4605 343.214 41.7059 328.459 41.7059 310.285C41.7059 292.11 56.4605 277.356 74.635 277.356ZM74.635 293.82C83.7211 293.82 91.0995 301.199 91.0995 310.285C91.0995 319.371 83.7211 326.749 74.635 326.749C65.5489 326.749 58.1704 319.371 58.1704 310.285C58.1704 301.199 65.5489 293.82 74.635 293.82Z" fill="white"/>
<path fill-rule="evenodd" clip-rule="evenodd" d="M118.111 284.889C119.324 286.03 119.306 287.738 119.306 289.088C119.306 298.019 119.233 323.405 119.324 332.326C119.334 333.264 119.021 334.245 118.562 334.982L73.6801 310.285L118.111 284.889Z" fill="#3949AB"/>
<path d="M281.667 282.213C281.423 282.213 281.18 281.969 281.423 281.725L283.129 279.288C283.373 279.044 283.617 278.8 284.104 278.8H314.815C315.058 278.8 315.302 279.044 315.058 279.288L313.596 281.481C313.352 281.725 313.109 281.969 312.621 281.969L281.667 282.213ZM268.749 290.012C268.506 290.012 268.262 289.768 268.506 289.525L270.212 287.087C270.455 286.843 270.699 286.6 271.187 286.6H310.427C310.671 286.6 310.915 286.843 310.915 287.087L310.184 289.525C310.184 289.768 309.696 290.012 309.453 290.012H268.749ZM289.467 298.055C289.223 298.055 288.979 297.811 289.223 297.568L290.441 295.374C290.685 295.13 290.929 294.887 291.416 294.887H308.478C308.721 294.887 308.965 295.13 308.965 295.374L308.721 297.324C308.721 297.568 308.478 297.811 308.234 297.811L289.467 298.055ZM378.672 280.506L364.292 284.162C363.074 284.406 362.83 284.65 361.855 283.188C360.636 281.725 359.661 280.75 357.711 280.019C352.349 277.338 346.987 278.069 342.113 281.238C336.263 284.894 333.338 290.499 333.338 297.568C333.338 304.392 338.213 309.998 345.037 310.973C350.887 311.704 355.762 309.754 359.661 305.367C360.393 304.392 361.124 303.417 362.099 302.199H345.525C343.819 302.199 343.331 300.98 343.819 299.518C345.037 296.837 346.987 292.449 348.206 290.256C348.45 289.768 349.181 288.793 350.4 288.793H381.597C381.353 291.231 381.353 293.424 381.11 295.862C380.135 301.955 377.941 307.804 374.042 312.679C367.948 320.722 359.905 325.841 349.668 327.303C341.138 328.522 333.338 326.816 326.514 321.697C320.177 316.823 316.521 310.485 315.546 302.686C314.327 293.424 317.252 284.894 322.858 277.582C328.951 269.539 336.994 264.42 346.987 262.714C355.03 261.252 362.83 262.227 369.654 266.857C374.285 269.782 377.454 273.926 379.647 279.044C379.891 280.019 379.647 280.263 378.672 280.506Z" fill="#00ACD7"/>
<path d="M406.945 328.034C399.146 327.79 392.078 325.597 385.984 320.479C380.866 316.091 377.698 310.486 376.723 303.905C375.26 294.155 377.941 285.625 383.791 278.069C390.128 269.782 397.684 265.639 407.92 263.689C416.695 262.227 424.982 262.958 432.293 268.076C439.118 272.707 443.261 279.044 444.48 287.331C445.942 299.03 442.53 308.292 434.731 316.335C429.125 322.185 422.057 325.597 414.257 327.303C411.576 327.79 409.139 327.79 406.945 328.034ZM427.419 293.424C427.419 292.206 427.419 291.474 427.175 290.499C425.713 281.969 417.913 277.094 409.626 279.044C401.583 280.75 396.465 285.869 394.515 293.912C393.053 300.493 396.221 307.317 402.314 310.242C406.945 312.192 411.82 311.948 416.207 309.754C423.275 306.342 426.931 300.736 427.419 293.424Z" fill="#00ACD7"/>
<g clip-path="url(#clip2)">
<path d="M41.3032 63.192C37.8301 63.2081 34.5134 63.5043 31.595 64.0207C22.9978 65.5396 21.4368 68.7187 21.4368 74.5814V82.3243H41.7531V84.9053H21.4368H13.8123C7.90786 84.9053 2.73773 88.4542 1.12058 95.2055C-0.744776 102.944 -0.827515 107.773 1.12058 115.853C2.56474 121.868 6.01357 126.153 11.918 126.153H18.9032V116.871C18.9032 110.166 24.7052 104.251 31.595 104.251H51.8876C57.5363 104.251 62.0457 99.5997 62.0457 93.9268V74.5814C62.0457 69.0756 57.4009 64.9396 51.8876 64.0207C48.3975 63.4398 44.7763 63.1759 41.3032 63.192ZM30.3163 69.4195C32.4149 69.4195 34.1286 71.1612 34.1286 73.3028C34.1286 75.4367 32.4149 77.1624 30.3163 77.1624C28.2103 77.1624 26.5041 75.4367 26.5041 73.3028C26.5041 71.1612 28.2103 69.4195 30.3163 69.4195Z" fill="url(#paint0_linear)"/>
<path d="M64.5793 84.9053V93.9268C64.5793 100.921 58.6495 106.808 51.8876 106.808H31.595C26.0365 106.808 21.4369 111.565 21.4369 117.132V136.477C21.4369 141.983 26.2246 145.222 31.595 146.801C38.026 148.692 44.193 149.034 51.8876 146.801C57.0023 145.32 62.0457 142.34 62.0457 136.477V128.734H41.7531V126.153H62.0457H72.2038C78.1083 126.153 80.3086 122.035 82.362 115.853C84.4831 109.489 84.3928 103.369 82.362 95.2055C80.9028 89.3276 78.1158 84.9053 72.2038 84.9053H64.5793ZM53.1662 133.896C55.2723 133.896 56.9785 135.622 56.9785 137.756C56.9785 139.898 55.2723 141.639 53.1662 141.639C51.0677 141.639 49.354 139.898 49.354 137.756C49.354 135.622 51.0677 133.896 53.1662 133.896Z" fill="url(#paint1_linear)"/>
</g>
<g clip-path="url(#clip3)">
<path d="M340.35 93.9888C342.19 96.0872 342.797 99.0875 342.268 101.794C341.7 104.833 340.017 107.52 338.04 109.834C336.454 111.696 334.634 113.344 332.735 114.873C330.523 116.658 328.35 118.579 326.96 121.089C325.786 123.129 325.512 125.639 326.314 127.855C327.626 131.659 330.68 134.483 332.343 138.071C330.503 136.444 328.703 134.757 327.019 132.973C325.257 131.09 323.593 129.09 322.497 126.737C321.753 125.09 321.421 123.168 321.988 121.423C322.556 119.638 323.828 118.207 325.101 116.873C328.644 113.324 333.009 110.716 336.474 107.108C338.392 105.127 339.978 102.754 340.526 100.029C340.976 98.0285 340.761 95.9695 340.35 93.9888Z" fill="#EA232D"/>
<path d="M340.35 93.9888C342.19 96.0872 342.797 99.0875 342.268 101.794C341.7 104.833 340.017 107.52 338.04 109.834C336.454 111.696 334.634 113.344 332.735 114.873C330.523 116.658 328.35 118.579 326.96 121.089C325.786 123.129 325.512 125.639 326.314 127.855C327.626 131.659 330.68 134.483 332.343 138.071C330.503 136.444 328.703 134.757 327.019 132.973C325.257 131.09 323.593 129.09 322.497 126.737C321.753 125.09 321.421 123.168 321.988 121.423C322.556 119.638 323.828 118.207 325.101 116.873C328.644 113.324 333.009 110.716 336.474 107.108C338.392 105.127 339.978 102.754 340.526 100.029C340.976 98.0286 340.761 95.9695 340.35 93.9888Z" stroke="#EA232D" stroke-width="0.125" stroke-miterlimit="10"/>
<path d="M337.453 116.324C341.25 113.52 345.693 111.736 350.196 110.441C346.633 112.716 342.914 114.795 339.841 117.717C338.725 118.795 337.668 120.031 337.178 121.541C336.806 122.658 336.963 123.894 337.414 124.953C338.236 126.835 339.625 128.365 340.682 130.09C341.583 131.561 341.739 133.444 341.054 135.032C340.017 137.365 337.981 139.072 335.867 140.425C335.593 140.581 335.358 140.876 335.025 140.915C336.435 139.64 337.531 137.836 337.492 135.895C337.453 134.444 336.65 133.169 335.71 132.13C333.772 129.816 332.148 126.874 332.481 123.756C332.813 120.638 335.045 118.128 337.453 116.324Z" fill="#EA232D"/>
<path d="M337.453 116.324C341.25 113.52 345.693 111.736 350.196 110.441C346.633 112.716 342.914 114.795 339.841 117.717C338.725 118.795 337.668 120.031 337.178 121.541C336.806 122.658 336.963 123.894 337.414 124.953C338.236 126.835 339.625 128.365 340.682 130.09C341.583 131.561 341.739 133.444 341.054 135.032C340.017 137.365 337.981 139.072 335.867 140.425C335.593 140.581 335.358 140.876 335.025 140.915C336.435 139.64 337.531 137.836 337.492 135.895C337.453 134.444 336.65 133.169 335.71 132.13C333.772 129.816 332.148 126.874 332.481 123.756C332.813 120.638 335.045 118.128 337.453 116.324V116.324Z" stroke="#EA232D" stroke-width="0.125" stroke-miterlimit="10"/>
<path d="M350.92 138.993C351.742 137.993 353.054 137.738 354.248 137.581C356.323 137.307 358.535 137.836 360.101 139.268C361.393 140.425 362.117 142.229 361.843 143.974C361.549 145.994 360.198 147.68 358.672 148.955C355.912 151.171 352.506 152.465 349.1 153.328C349.295 153.112 349.51 152.916 349.765 152.759C352.349 151.367 354.913 149.739 356.812 147.464C357.967 146.053 358.868 144.209 358.496 142.346C358.104 140.189 356.01 138.62 353.876 138.503C352.858 138.405 351.899 138.797 350.92 138.993Z" fill="#3471C1"/>
<path d="M350.92 138.993C351.742 137.993 353.054 137.738 354.248 137.581C356.323 137.307 358.535 137.836 360.101 139.268C361.393 140.425 362.117 142.229 361.843 143.974C361.549 145.994 360.198 147.68 358.672 148.955C355.912 151.171 352.506 152.465 349.1 153.328C349.295 153.112 349.51 152.916 349.765 152.759C352.349 151.367 354.913 149.739 356.812 147.464C357.967 146.053 358.868 144.209 358.496 142.346C358.104 140.189 356.01 138.62 353.876 138.503C352.858 138.405 351.899 138.797 350.92 138.993V138.993Z" stroke="#3471C1" stroke-width="0.125" stroke-miterlimit="10"/>
<path d="M311.574 140.778C315.176 139.228 319.091 138.228 323.026 138.287C320.736 138.954 318.387 139.523 316.233 140.542C315.724 140.817 315.137 141.072 314.843 141.601C314.687 142.013 315.117 142.287 315.431 142.425C316.762 142.974 318.23 143.052 319.659 143.19C324.67 143.523 329.701 143.327 334.692 143.013C339.625 142.699 344.519 142.033 349.393 141.248C348.317 141.758 347.22 142.268 346.222 142.915C345.713 143.268 345.087 143.366 344.519 143.503C338.529 144.837 332.383 145.249 326.275 145.347C323.907 145.366 321.558 145.327 319.209 145.17C316.586 144.994 313.943 144.798 311.379 144.111C310.635 143.895 309.852 143.66 309.265 143.131C308.971 142.895 308.971 142.425 309.225 142.15C309.871 141.483 310.772 141.17 311.574 140.778Z" fill="#3471C1"/>
<path d="M311.574 140.778C315.176 139.228 319.091 138.228 323.026 138.287C320.736 138.954 318.387 139.523 316.233 140.542C315.724 140.817 315.137 141.072 314.843 141.601C314.687 142.013 315.117 142.287 315.431 142.425C316.762 142.974 318.23 143.052 319.659 143.19C324.67 143.523 329.701 143.327 334.692 143.013C339.625 142.699 344.519 142.033 349.393 141.248C348.317 141.758 347.22 142.268 346.222 142.915C345.713 143.268 345.087 143.366 344.519 143.503C338.529 144.837 332.383 145.249 326.275 145.347C323.907 145.366 321.558 145.327 319.209 145.17C316.586 144.994 313.943 144.798 311.379 144.111C310.635 143.895 309.852 143.66 309.265 143.131C308.971 142.895 308.971 142.425 309.225 142.15C309.871 141.483 310.772 141.17 311.574 140.778Z" stroke="#3471C1" stroke-width="0.125" stroke-miterlimit="10"/>
<path d="M316.194 149.151C317.212 148.347 318.426 147.896 319.639 147.464C319.248 147.935 318.7 148.386 318.661 149.033C318.641 149.445 318.974 149.759 319.306 149.955C319.953 150.288 320.677 150.406 321.401 150.504C325.16 150.896 328.957 151.112 332.755 150.857C336.219 150.68 339.665 150.112 343.09 149.504C344.03 150.386 345.146 150.994 346.32 151.524C342.19 152.739 337.942 153.445 333.674 153.779C329.642 154.053 325.551 154.034 321.538 153.386C319.953 153.092 318.328 152.759 316.879 152.014C316.292 151.7 315.626 151.288 315.45 150.602C315.333 150.014 315.763 149.484 316.194 149.151Z" fill="#3471C1"/>
<path d="M316.194 149.151C317.212 148.347 318.426 147.896 319.639 147.464C319.248 147.935 318.7 148.386 318.661 149.033C318.641 149.445 318.974 149.759 319.306 149.955C319.953 150.288 320.677 150.406 321.401 150.504C325.16 150.896 328.957 151.112 332.755 150.857C336.219 150.68 339.665 150.112 343.09 149.504C344.03 150.386 345.146 150.994 346.32 151.524C342.19 152.739 337.942 153.445 333.674 153.779C329.642 154.053 325.551 154.034 321.538 153.386C319.953 153.092 318.328 152.759 316.879 152.014C316.292 151.7 315.626 151.288 315.45 150.602C315.333 150.014 315.763 149.484 316.194 149.151Z" stroke="#3471C1" stroke-width="0.125" stroke-miterlimit="10"/>
<path d="M318.465 157.7C319.365 156.975 320.481 156.603 321.577 156.289C321.225 156.622 320.599 157.034 320.873 157.602C321.401 158.289 322.38 158.367 323.163 158.544C326.471 158.956 329.818 159.23 333.126 158.975C335.632 158.819 338.099 158.367 340.546 157.936C341.955 158.76 343.423 159.465 344.93 160.093C342.62 161.132 340.134 161.799 337.648 162.27C333.459 163.015 329.133 163.113 324.925 162.446C323.065 162.113 321.166 161.681 319.483 160.76C318.837 160.387 318.152 159.956 317.878 159.23C317.662 158.662 318.014 158.054 318.465 157.7Z" fill="#3471C1"/>
<path d="M318.465 157.7C319.365 156.975 320.481 156.603 321.577 156.289C321.225 156.622 320.599 157.034 320.873 157.602C321.401 158.289 322.38 158.367 323.163 158.544C326.471 158.956 329.818 159.23 333.126 158.975C335.632 158.819 338.099 158.367 340.546 157.936C341.955 158.76 343.423 159.465 344.93 160.093C342.62 161.132 340.134 161.799 337.648 162.27C333.459 163.015 329.133 163.113 324.925 162.446C323.065 162.113 321.166 161.681 319.483 160.76C318.837 160.387 318.152 159.956 317.878 159.23C317.662 158.662 318.014 158.054 318.465 157.7Z" stroke="#3471C1" stroke-width="0.125" stroke-miterlimit="10"/>
<path d="M307.601 163.25C309.402 162.642 311.261 162.152 313.16 162.093C313.923 162.074 314.706 162.113 315.372 162.505C313.101 162.642 310.831 163.211 308.795 164.25C308.344 164.505 307.836 164.8 307.659 165.329C307.659 165.936 308.344 166.133 308.795 166.329C311.633 167.388 314.667 167.721 317.643 168.035C326.51 168.78 335.436 168.584 344.304 167.78C347.651 167.407 351.018 167.035 354.267 166.113C355.305 165.76 356.479 165.407 357.164 164.485C357.576 163.937 357.302 163.25 356.891 162.78C357.556 163.152 358.496 163.623 358.359 164.525C358.104 165.466 357.145 165.956 356.362 166.407C353.857 167.682 351.096 168.329 348.356 168.898C340.389 170.466 332.226 170.819 324.122 170.584C318.015 170.368 311.907 169.78 305.878 168.741C304.801 168.486 303.588 168.27 302.805 167.427C302.296 166.839 302.746 166.015 303.235 165.584C304.469 164.446 306.054 163.819 307.601 163.25Z" fill="#3471C1"/>
<path d="M307.601 163.25C309.402 162.642 311.261 162.152 313.16 162.093C313.923 162.074 314.706 162.113 315.372 162.505C313.101 162.642 310.831 163.211 308.795 164.25C308.344 164.505 307.836 164.8 307.659 165.329C307.659 165.936 308.344 166.133 308.795 166.329C311.633 167.388 314.667 167.721 317.643 168.035C326.51 168.78 335.436 168.584 344.304 167.78C347.651 167.407 351.018 167.035 354.267 166.113C355.305 165.76 356.479 165.407 357.164 164.485C357.576 163.937 357.302 163.25 356.891 162.78C357.556 163.152 358.496 163.623 358.359 164.525C358.104 165.466 357.145 165.956 356.362 166.407C353.857 167.682 351.096 168.329 348.356 168.898C340.389 170.466 332.226 170.819 324.122 170.584C318.015 170.368 311.907 169.78 305.878 168.741C304.801 168.486 303.588 168.27 302.805 167.427C302.296 166.839 302.746 166.015 303.235 165.584C304.469 164.446 306.054 163.819 307.601 163.25V163.25Z" stroke="#3471C1" stroke-width="0.125" stroke-miterlimit="10"/>
<path d="M356.381 169.956C358.359 169.27 360.472 168.545 361.941 166.976C361.687 168.682 360.218 169.858 358.77 170.623C355.99 172.075 352.878 172.741 349.785 173.29C343.247 174.33 336.611 174.584 329.975 174.467C325.453 174.33 320.892 174.153 316.448 173.212C315.391 172.918 314.256 172.721 313.336 172.094C317.29 172.761 321.303 173.036 325.316 173.192C331.913 173.388 338.529 173.134 345.087 172.31C348.884 171.78 352.701 171.133 356.381 169.956Z" fill="#3471C1"/>
<path d="M356.381 169.956C358.359 169.27 360.472 168.545 361.941 166.976C361.687 168.682 360.218 169.858 358.77 170.623C355.99 172.075 352.878 172.741 349.785 173.29C343.247 174.33 336.611 174.584 329.975 174.467C325.453 174.33 320.892 174.153 316.448 173.212C315.391 172.918 314.256 172.721 313.336 172.094C317.29 172.761 321.303 173.036 325.316 173.192C331.913 173.388 338.529 173.134 345.087 172.31C348.884 171.78 352.701 171.133 356.381 169.956V169.956Z" stroke="#3471C1" stroke-width="0.125" stroke-miterlimit="10"/>
<path d="M304.801 199.038C304.821 192.606 304.782 186.174 304.821 179.722C306.152 179.761 307.483 179.722 308.814 179.761C308.795 186.958 308.814 194.174 308.795 201.391C308.756 203.41 308.716 205.529 307.738 207.332C306.661 209.254 304.743 210.607 302.707 211.392C302.061 210.686 301.474 209.941 300.828 209.235C302.472 208.274 304.116 206.901 304.508 204.921C304.88 202.979 304.762 200.999 304.801 199.038Z" fill="#EA232D"/>
<path d="M304.801 199.038C304.821 192.606 304.782 186.174 304.821 179.722C306.152 179.761 307.483 179.722 308.814 179.761C308.795 186.958 308.814 194.174 308.795 201.391C308.756 203.41 308.716 205.529 307.738 207.332C306.661 209.254 304.743 210.607 302.707 211.392C302.061 210.686 301.474 209.941 300.828 209.235C302.472 208.274 304.116 206.901 304.508 204.921C304.88 202.979 304.762 200.999 304.801 199.038Z" stroke="#EA232D" stroke-width="0.125" stroke-miterlimit="10"/>
<path d="M317.369 196.567C316.507 196.841 315.705 197.469 315.47 198.371C315.196 199.371 315.274 200.547 315.92 201.391C316.546 202.214 317.682 202.41 318.661 202.293C320.031 202.136 321.225 201.351 322.282 200.508C322.282 199.038 322.262 197.587 322.282 196.116C320.638 196.116 318.954 196.018 317.369 196.567ZM312.514 187.468C315.157 186.331 318.093 185.742 320.97 186.056C322.458 186.232 324.005 186.782 324.964 187.978C325.766 188.997 326.06 190.311 326.04 191.586C326.04 195.979 326.04 200.351 326.04 204.744C325.062 204.744 324.083 204.744 323.084 204.744C322.987 204.097 322.889 203.43 322.81 202.764C321.695 203.646 320.501 204.489 319.111 204.842C317.525 205.254 315.783 205.215 314.237 204.607C313.042 204.117 312.103 203.038 311.77 201.783C311.281 199.959 311.535 197.822 312.827 196.351C313.982 194.998 315.724 194.331 317.447 194.018C319.032 193.704 320.657 193.704 322.282 193.704C322.243 192.469 322.478 191.115 321.773 190.017C321.205 189.174 320.168 188.841 319.209 188.782C317.114 188.605 315.039 189.135 313.062 189.821C312.866 189.037 312.69 188.252 312.514 187.468Z" fill="#EA232D"/>
<path d="M317.369 196.567C316.507 196.841 315.705 197.469 315.47 198.371C315.196 199.371 315.274 200.547 315.92 201.391C316.546 202.214 317.682 202.41 318.661 202.293C320.031 202.136 321.225 201.351 322.282 200.508C322.282 199.038 322.262 197.587 322.282 196.116C320.638 196.116 318.954 196.018 317.369 196.567ZM312.514 187.468C315.157 186.331 318.093 185.742 320.97 186.056C322.458 186.232 324.005 186.782 324.964 187.978C325.766 188.997 326.06 190.311 326.04 191.586C326.04 195.979 326.04 200.351 326.04 204.744C325.062 204.744 324.083 204.744 323.084 204.744C322.987 204.097 322.889 203.43 322.81 202.764C321.695 203.646 320.501 204.489 319.111 204.842C317.525 205.254 315.783 205.215 314.237 204.607C313.042 204.117 312.103 203.038 311.77 201.783C311.281 199.959 311.535 197.822 312.827 196.351C313.982 194.998 315.724 194.331 317.447 194.018C319.032 193.704 320.657 193.704 322.282 193.704C322.243 192.469 322.478 191.115 321.773 190.017C321.205 189.174 320.168 188.841 319.209 188.782C317.114 188.605 315.039 189.135 313.062 189.821C312.866 189.037 312.69 188.252 312.514 187.468Z" stroke="#EA232D" stroke-width="0.125" stroke-miterlimit="10"/>
<path d="M351.723 196.587C350.9 196.861 350.137 197.489 349.883 198.351C349.608 199.352 349.687 200.528 350.313 201.391C350.959 202.234 352.114 202.41 353.113 202.293C354.463 202.097 355.696 201.352 356.714 200.449C356.675 199.018 356.695 197.567 356.695 196.116C355.031 196.116 353.328 196.018 351.723 196.587ZM346.927 187.468C349.589 186.331 352.525 185.723 355.423 186.056C356.871 186.232 358.359 186.762 359.318 187.899C360.218 188.978 360.492 190.41 360.473 191.782C360.453 196.116 360.492 200.43 360.434 204.764C359.455 204.725 358.476 204.783 357.497 204.725C357.399 204.058 357.321 203.411 357.204 202.764C355.833 203.94 354.189 204.901 352.33 205.058C350.627 205.215 348.708 204.999 347.377 203.783C345.987 202.489 345.752 200.391 346.104 198.606C346.437 196.959 347.67 195.606 349.159 194.88C351.488 193.743 354.15 193.684 356.695 193.704C356.655 192.508 356.871 191.233 356.264 190.154C355.794 189.292 354.796 188.899 353.857 188.801C351.683 188.566 349.511 189.115 347.475 189.821C347.299 189.037 347.103 188.252 346.927 187.468Z" fill="#EA232D"/>
<path d="M346.927 187.468C349.589 186.331 352.525 185.723 355.423 186.056C356.871 186.232 358.359 186.762 359.318 187.899C360.218 188.978 360.492 190.41 360.473 191.782C360.453 196.116 360.492 200.43 360.434 204.764C359.455 204.725 358.476 204.783 357.497 204.725C357.399 204.058 357.321 203.411 357.204 202.764C355.833 203.94 354.189 204.901 352.33 205.058C350.627 205.215 348.708 204.999 347.377 203.783C345.987 202.489 345.752 200.391 346.104 198.606C346.437 196.959 347.67 195.606 349.159 194.88C351.488 193.743 354.15 193.684 356.695 193.704C356.655 192.508 356.871 191.233 356.264 190.154C355.794 189.292 354.796 188.899 353.857 188.801C351.683 188.566 349.511 189.115 347.475 189.821C347.299 189.037 347.103 188.252 346.927 187.468M351.723 196.587C350.9 196.861 350.137 197.489 349.883 198.351C349.608 199.352 349.687 200.528 350.313 201.391C350.959 202.234 352.114 202.41 353.113 202.293C354.463 202.097 355.696 201.352 356.714 200.449C356.675 199.018 356.695 197.567 356.695 196.116C355.031 196.116 353.328 196.018 351.723 196.587Z" stroke="#EA232D" stroke-width="0.125" stroke-miterlimit="10"/>
<path d="M328.272 186.292C329.642 186.292 331.012 186.292 332.383 186.292C333.185 188.88 333.968 191.449 334.771 194.037C335.24 195.626 335.828 197.194 336.161 198.822C336.337 199.548 336.493 200.293 336.709 200.999C338.392 196.233 339.684 191.312 340.35 186.292C341.681 186.292 343.012 186.292 344.343 186.292C343.188 192.645 341.368 198.9 338.627 204.744C337.061 204.744 335.495 204.744 333.929 204.744C332.05 198.587 330.151 192.449 328.272 186.292Z" fill="#EA232D"/>
<path d="M328.272 186.292C329.642 186.292 331.012 186.292 332.383 186.292C333.185 188.88 333.968 191.449 334.771 194.037C335.24 195.626 335.828 197.194 336.161 198.822C336.337 199.548 336.493 200.293 336.709 200.999C338.392 196.233 339.684 191.312 340.35 186.292C341.681 186.292 343.012 186.292 344.343 186.292C343.188 192.645 341.368 198.9 338.627 204.744C337.061 204.744 335.495 204.744 333.929 204.744C332.05 198.587 330.151 192.449 328.272 186.292Z" stroke="#EA232D" stroke-width="0.125" stroke-miterlimit="10"/>
<path d="M361.254 185.935H360.773V185.761H361.944V185.935H361.46V187.346H361.254V185.935Z" fill="#EA232D"/>
<path d="M361.254 185.935H360.773V185.761H361.944V185.935H361.46V187.346H361.254V185.935Z" stroke="#EA232D" stroke-width="0.125" stroke-miterlimit="10"/>
<path d="M363.454 186.65C363.442 186.429 363.428 186.161 363.428 185.966H363.424C363.367 186.149 363.304 186.349 363.224 186.568L362.945 187.337H362.79L362.532 186.582C362.456 186.356 362.395 186.154 362.351 185.966H362.346C362.341 186.163 362.33 186.427 362.315 186.667L362.273 187.346H362.078L362.189 185.761H362.449L362.719 186.528C362.785 186.723 362.837 186.897 362.879 187.062H362.884C362.926 186.902 362.982 186.728 363.053 186.528L363.335 185.761H363.595L363.694 187.346H363.492L363.454 186.65Z" fill="#EA232D"/>
<path d="M363.454 186.65C363.442 186.429 363.428 186.161 363.428 185.966H363.424C363.367 186.149 363.304 186.349 363.224 186.568L362.945 187.337H362.79L362.532 186.582C362.456 186.356 362.395 186.154 362.351 185.966H362.346C362.341 186.163 362.33 186.427 362.315 186.667L362.273 187.346H362.078L362.189 185.761H362.449L362.719 186.528C362.785 186.723 362.837 186.897 362.879 187.062H362.884C362.926 186.902 362.982 186.728 363.053 186.528L363.335 185.761H363.595L363.694 187.346H363.492L363.454 186.65Z" stroke="#EA232D" stroke-width="0.125" stroke-miterlimit="10"/>
</g>
<g clip-path="url(#clip4)">
<path d="M224.948 178.131C224.947 176.431 224.766 174.735 224.406 173.074C223.737 169.658 221.961 166.528 219.322 164.11C217.97 162.846 216.41 161.824 214.711 161.089C213.048 160.287 211.273 159.752 209.44 159.457C207.628 159.123 205.627 159.123 203.817 158.965H159.066C157.672 158.989 156.281 159.101 154.901 159.301C153.527 159.453 152.181 159.782 150.888 160.285L149.617 160.778C148.405 161.385 147.247 162.096 146.159 162.903C145.805 163.238 145.429 163.396 145.075 163.709C143.732 164.854 142.608 166.234 141.757 167.781C140.878 169.317 140.263 170.973 139.962 172.694C139.692 174.361 139.511 176.042 139.42 177.728V216.73C139.42 218.43 139.602 220.126 139.962 221.787C140.631 225.203 142.407 228.333 145.045 230.751C146.383 231.976 147.918 232.967 149.586 233.682C151.249 234.485 153.024 235.02 154.857 235.314C156.669 235.649 158.67 235.649 160.48 235.807H203.915C205.799 235.804 207.681 235.64 209.537 235.314C211.336 235.02 213.08 234.475 214.715 233.703C216.407 232.941 217.99 231.955 219.42 230.772C220.747 229.623 221.855 228.243 222.691 226.7C223.587 225.177 224.2 223.52 224.503 221.799C224.773 220.124 224.954 218.436 225.044 216.742V178.146L224.948 178.131Z" fill="#F05138"/>
<path d="M196.595 218.407C188.972 222.367 178.501 222.768 167.984 218.72C159.779 215.58 152.754 210.171 147.821 203.191C150.123 204.823 152.627 206.177 155.28 207.218C166.15 211.693 177.044 211.491 184.691 207.218C174.597 199.914 165.506 191.434 157.633 181.978C156.277 180.614 155.063 179.114 154.01 177.503C162.278 184.108 171.073 190.092 180.316 195.404C173.584 188.912 167.393 181.932 161.801 174.527C171.127 183.039 181.379 190.585 192.385 197.037L193.562 197.663C193.881 196.934 194.156 196.187 194.386 195.425C196.928 187.101 194.033 177.637 187.681 169.805C202.387 177.792 211.093 192.807 207.468 205.383C207.468 205.717 207.281 206.054 207.16 206.39L207.278 206.524C214.548 214.691 212.549 223.327 211.631 221.695C207.655 214.872 200.29 216.972 196.597 218.404L196.595 218.407Z" fill="#FEFEFE"/>
</g>
<defs>
<linearGradient id="paint0_linear" x1="-0.309631" y1="63.1913" x2="46.5374" y2="103.112" gradientUnits="userSpaceOnUse">
<stop stop-color="#5A9FD4"/>
<stop offset="1" stop-color="#306998"/>
</linearGradient>
<linearGradient id="paint1_linear" x1="52.678" y1="137.105" x2="35.8711" y2="113.553" gradientUnits="userSpaceOnUse">
<stop stop-color="#FFD43B"/>
<stop offset="1" stop-color="#FFE873"/>
</linearGradient>
<clipPath id="clip0">
<rect width="93.1991" height="93.1991" fill="white" transform="translate(397.801 43.9475)"/>
</clipPath>
<clipPath id="clip1">
<rect width="87.1373" height="97.7454" fill="white" transform="translate(181.094)"/>
</clipPath>
<clipPath id="clip2">
<rect width="84.1065" height="85.6219" fill="white" transform="translate(0 62.8904)"/>
</clipPath>
<clipPath id="clip3">
<rect width="62.8904" height="117.446" fill="white" transform="translate(300.813 93.9568)"/>
</clipPath>
<clipPath id="clip4">
<rect width="85.6219" height="85.6219" fill="white" transform="translate(139.42 154.574)"/>
</clipPath>
</defs>
</svg>
